# xmcd
#
# Track frame offsets:
#	225
#	19555
#	39770
#	61005
#	81367
#	97787
#	119942
#	140917
#	154010
#
# Disc length: 2338 seconds
#
# Revision: 0
# Processed by: cddbd v1.4PL0 Copyright (c) Steve Scherf et al.
# Submitted via: dBpowerAMP V4.0
#
DISCID=6d091f09
DTITLE=Peter Byrne - Casino Company
DYEAR=1900
DGENRE=Blues
TTITLE0=Quiet Day
TTITLE1=Imaginary Friend
TTITLE2=Sure Feels Good to Me
TTITLE3=The Trouble
TTITLE4=Looking Out I'm in Today
TTITLE5=Casino Company
TTITLE6=Killing Time
TTITLE7=Take Time for a Woman
TTITLE8=Back to the Start
EXTD=
EXTT0=
EXTT1=
EXTT2=
EXTT3=
EXTT4=
EXTT5=
EXTT6=
EXTT7=
EXTT8=
PLAYORDER=
